<svg xmlns="http://www.w3.org/2000/svg" xmlns:xlink="http://www.w3.org/1999/xlink" viewBox="0 0 153.07 240.94"><defs><style>.cls-1,.cls-2{fill:none;}.cls-1{stroke:#222;stroke-linecap:round;stroke-linejoin:round;stroke-width:3.08px;}.cls-3{fill:#f2efee;}.cls-4{fill:#e4e3e2;}.cls-5{isolation:isolate;}.cls-6{fill:#e6f1fc;}.cls-11,.cls-12,.cls-6,.cls-8{mix-blend-mode:screen;}.cls-7{fill:url(#linear-gradient);}.cls-8{fill:url(#linear-gradient-2);}.cls-9{clip-path:url(#clip-path);}.cls-10{fill:url(#Nueva_muestra_de_motivo_3);}.cls-11{fill:#043884;}.cls-12{fill:#125fdb;}</style><linearGradient id="linear-gradient" x1="-20.74" y1="-13.09" x2="173.78" y2="-13.09" gradientTransform="translate(13.15 -57.95) rotate(45)" gradientUnits="userSpaceOnUse"><stop offset="0" stop-color="#3cc5f2"/><stop offset="1" stop-color="#005e9c"/></linearGradient><linearGradient id="linear-gradient-2" x1="-21.22" y1="-24.74" x2="173.3" y2="-24.74" gradientTransform="translate(4.78 -61.02) rotate(45)" gradientUnits="userSpaceOnUse"><stop offset="0" stop-color="#3cc5f2"/><stop offset="0.24" stop-color="#30b1e1"/><stop offset="0.73" stop-color="#127eb6"/><stop offset="1" stop-color="#005e9c"/></linearGradient><clipPath id="clip-path"><circle class="cls-1" cx="76.52" cy="78.1" r="35.83" transform="translate(-10.41 144.41) rotate(-82.92)"/></clipPath><pattern id="Nueva_muestra_de_motivo_3" data-name="Nueva muestra de motivo 3" width="13" height="13" patternTransform="translate(-144.78 -23.26) scale(1.06)" patternUnits="userSpaceOnUse" viewBox="0 0 13 13"><rect class="cls-2" width="13" height="13"/><rect class="cls-3" width="6.5" height="6.5"/><rect class="cls-4" x="6.5" width="6.5" height="6.5"/><rect class="cls-4" y="6.5" width="6.5" height="6.5"/><rect class="cls-3" x="6.5" y="6.5" width="6.5" height="6.5"/></pattern></defs><g class="cls-5"><g id="Layer_1" data-name="Layer 1"><rect class="cls-6" x="-40.05" y="39.95" width="233" height="153.1" transform="translate(192.95 40.05) rotate(90)"/><circle class="cls-7" cx="76.52" cy="-13.09" r="97.26" transform="translate(31.67 50.27) rotate(-45)"/><circle class="cls-8" cx="76.04" cy="-24.74" r="97.26" transform="translate(39.76 46.52) rotate(-45)"/><g class="cls-9"><rect class="cls-10" x="17.78" y="36.59" width="117.49" height="176.24"/></g><circle class="cls-1" cx="76.52" cy="78.1" r="35.83" transform="translate(-10.41 144.41) rotate(-82.92)"/><rect class="cls-11" y="237" width="153" height="4"/><rect class="cls-12" y="233" width="153" height="4"/></g></g></svg>