<svg width="40" height="40" viewBox="0 0 40 40" fill="none" xmlns="http://www.w3.org/2000/svg">
<rect width="40" height="40" rx="11" fill="#359C47"/>
<path d="M14.7874 10.268L16.2103 9.83943C16.858 9.64403 17.5547 9.69101 18.1703 9.9716C18.7859 10.2522 19.2783 10.7472 19.5557 11.3643L20.4411 13.334C20.6797 13.8646 20.7462 14.4566 20.6312 15.027C20.5162 15.5973 20.2255 16.1173 19.8 16.514L18.2528 17.9566C18.2337 17.9744 18.218 17.9956 18.2066 18.0191C18.0446 18.35 18.2906 19.2337 19.0611 20.5691C19.9303 22.0743 20.6014 22.6692 20.9126 22.5774L22.9431 21.956C23.4992 21.7862 24.0945 21.7946 24.6456 21.9802C25.1966 22.1657 25.6758 22.519 26.016 22.9906L27.2743 24.7332C27.6693 25.2803 27.8523 25.9522 27.7893 26.6241C27.7262 27.296 27.4214 27.9222 26.9314 28.3863L25.8488 29.4106C25.4724 29.7672 25.0153 30.0274 24.5164 30.169C24.0176 30.3107 23.492 30.3295 22.9843 30.224C19.9697 29.5966 17.2688 27.1692 14.8586 22.9949C12.4474 18.818 11.6957 15.2609 12.6643 12.3354C12.8264 11.8457 13.1041 11.4021 13.4737 11.0423C13.8434 10.6824 14.2943 10.4169 14.7883 10.268H14.7874ZM15.1594 11.4989C14.863 11.5881 14.5925 11.7474 14.3706 11.9633C14.1488 12.1792 13.9822 12.4453 13.8848 12.7391C13.05 15.26 13.7263 18.4623 15.972 22.352C18.216 26.2392 20.6486 28.4249 23.2457 28.9649C23.5505 29.0282 23.866 29.0169 24.1654 28.9318C24.4649 28.8467 24.7392 28.6904 24.9651 28.4763L26.0468 27.4529C26.3108 27.203 26.475 26.8659 26.5091 26.5041C26.5431 26.1423 26.4447 25.7804 26.232 25.4857L24.9737 23.7423C24.7906 23.4884 24.5326 23.2982 24.236 23.1983C23.9393 23.0984 23.6188 23.0938 23.3194 23.1852L21.2837 23.8083C20.1574 24.1434 19.098 23.2049 17.9477 21.2112C16.9731 19.5243 16.6354 18.3054 17.052 17.4543C17.1326 17.2897 17.2423 17.1414 17.376 17.0163L18.9231 15.5737C19.1524 15.3601 19.309 15.0801 19.3709 14.7729C19.4329 14.4658 19.3971 14.1469 19.2686 13.8611L18.3831 11.8923C18.2338 11.5599 17.9686 11.2933 17.637 11.1422C17.3055 10.9911 16.9302 10.9658 16.5814 11.0711L15.1586 11.4997L15.1594 11.4989Z" fill="white"/>
</svg>
