<svg id="Layer_1" data-name="Layer 1" xmlns="http://www.w3.org/2000/svg" xmlns:xlink="http://www.w3.org/1999/xlink" viewBox="0 0 153.07 240.94"><defs><style>.cls-1,.cls-2{fill:none;}.cls-1{stroke:#222;stroke-linecap:round;stroke-linejoin:round;stroke-width:3.08px;}.cls-3{fill:#f2efee;}.cls-4{fill:#e4e3e2;}.cls-5{fill:#f7cbd3;}.cls-6{fill:url(#linear-gradient);}.cls-7{fill:url(#linear-gradient-2);}.cls-8{clip-path:url(#clip-path);}.cls-9{fill:url(#Nueva_muestra_de_motivo_3);}.cls-10{fill:#93291e;}.cls-11{fill:#ed213a;}</style><linearGradient id="linear-gradient" x1="213.04" y1="-114.33" x2="-40.74" y2="73.87" gradientTransform="translate(13.15 -57.95) rotate(45)" gradientUnits="userSpaceOnUse"><stop offset="0" stop-color="#ed213a"/><stop offset="0.27" stop-color="#d92334"/><stop offset="0.82" stop-color="#a62724"/><stop offset="1" stop-color="#93291e"/></linearGradient><linearGradient id="linear-gradient-2" x1="-112.77" y1="-133.94" x2="181.41" y2="36.2" gradientTransform="translate(4.78 -61.02) rotate(45)" xlink:href="#linear-gradient"/><clipPath id="clip-path"><circle class="cls-1" cx="76.52" cy="78.1" r="35.83" transform="translate(-10.41 144.41) rotate(-82.92)"/></clipPath><pattern id="Nueva_muestra_de_motivo_3" data-name="Nueva muestra de motivo 3" width="13" height="13" patternTransform="translate(-323.46 -23.26) scale(1.06)" patternUnits="userSpaceOnUse" viewBox="0 0 13 13"><rect class="cls-2" width="13" height="13"/><rect class="cls-3" width="6.5" height="6.5"/><rect class="cls-4" x="6.5" width="6.5" height="6.5"/><rect class="cls-4" y="6.5" width="6.5" height="6.5"/><rect class="cls-3" x="6.5" y="6.5" width="6.5" height="6.5"/></pattern></defs><rect class="cls-5" x="-0.1" width="153.1" height="233"/><circle class="cls-6" cx="76.52" cy="-13.09" r="97.26" transform="translate(31.67 50.27) rotate(-45)"/><circle class="cls-7" cx="76.04" cy="-24.74" r="97.26" transform="translate(39.76 46.52) rotate(-45)"/><g class="cls-8"><rect class="cls-9" x="17.78" y="36.59" width="117.49" height="176.24"/></g><circle class="cls-1" cx="76.52" cy="78.1" r="35.83" transform="translate(-10.41 144.41) rotate(-82.92)"/><rect class="cls-10" y="237" width="153" height="4"/><rect class="cls-11" y="233" width="153" height="4"/></svg>