<svg xmlns="http://www.w3.org/2000/svg" xmlns:xlink="http://www.w3.org/1999/xlink" viewBox="0 0 153.07 240.94"><defs><style>.cls-1,.cls-2{fill:none;}.cls-1{stroke:#222;stroke-linecap:round;stroke-linejoin:round;stroke-width:3.08px;}.cls-3{fill:#f2efee;}.cls-4{fill:#e4e3e2;}.cls-5{isolation:isolate;}.cls-6{fill:#fff;}.cls-10,.cls-6,.cls-9{mix-blend-mode:screen;}.cls-7{fill:#f37335;}.cls-8{fill:#fdc830;}.cls-9{fill:url(#linear-gradient);}.cls-10{fill:url(#linear-gradient-2);}.cls-11{clip-path:url(#clip-path);}.cls-12{fill:url(#Nueva_muestra_de_motivo_3);}</style><linearGradient id="linear-gradient" x1="-26.22" y1="5.26" x2="168.3" y2="5.26" gradientTransform="translate(24.53 -48.69) rotate(45)" gradientUnits="userSpaceOnUse"><stop offset="0" stop-color="#fdc830"/><stop offset="0.28" stop-color="#fbb431"/><stop offset="0.86" stop-color="#f58134"/><stop offset="1" stop-color="#f37335"/></linearGradient><linearGradient id="linear-gradient-2" x1="-25.74" y1="-6.09" x2="168.78" y2="-6.09" gradientTransform="translate(16.64 -52.36) rotate(45)" xlink:href="#linear-gradient"/><clipPath id="clip-path"><circle class="cls-1" cx="76.52" cy="91.1" r="35.83" transform="translate(-23.31 155.81) rotate(-82.92)"/></clipPath><pattern id="Nueva_muestra_de_motivo_3" data-name="Nueva muestra de motivo 3" width="13" height="13" patternTransform="translate(-310.93 -10.26) scale(1.06)" patternUnits="userSpaceOnUse" viewBox="0 0 13 13"><rect class="cls-2" width="13" height="13"/><rect class="cls-3" width="6.5" height="6.5"/><rect class="cls-4" x="6.5" width="6.5" height="6.5"/><rect class="cls-4" y="6.5" width="6.5" height="6.5"/><rect class="cls-3" x="6.5" y="6.5" width="6.5" height="6.5"/></pattern></defs><g class="cls-5"><g id="Layer_1" data-name="Layer 1"><rect class="cls-6" x="11.42" y="91.45" width="130.01" height="153.1" transform="translate(244.43 91.58) rotate(90)"/><rect class="cls-7" y="237" width="153" height="4"/><rect class="cls-8" y="233" width="153" height="4"/><circle class="cls-9" cx="71.04" cy="5.26" r="97.26" transform="translate(17.09 51.78) rotate(-45)"/><circle class="cls-10" cx="71.52" cy="-6.09" r="97.26" transform="translate(25.26 48.79) rotate(-45)"/><g class="cls-11"><rect class="cls-12" x="17.78" y="49.59" width="117.49" height="176.24"/></g><circle class="cls-1" cx="76.52" cy="91.1" r="35.83" transform="translate(-23.31 155.81) rotate(-82.92)"/></g></g></svg>