<?xml version="1.0" encoding="utf-8"?>
<!-- Generator: Adobe Illustrator 26.0.2, SVG Export Plug-In . SVG Version: 6.00 Build 0)  -->
<svg version="1.1" id="Layer_1" xmlns="http://www.w3.org/2000/svg" xmlns:xlink="http://www.w3.org/1999/xlink" x="0px" y="0px"
	 width="50px" height="50px" viewBox="0 0 50 50" style="enable-background:new 0 0 50 50;" xml:space="preserve">
<style type="text/css">
	.st0{fill:#FEECC4;}
	.st1{fill:#FCB857;}
</style>
<circle class="st0" cx="25" cy="25" r="25"/>
<g>
	<path class="st1" d="M30.1,33.9c-1.5,0-2.7-0.4-4-1c-1.8-0.9-3.5-2-4.9-3.4c-1.5-1.5-2.8-3.1-3.8-5c-0.8-1.5-1.3-3-1.3-4.6
		c0-0.7,0.1-1.4,0.5-2.1c0.5-0.9,1.2-1.5,2.2-1.7c0.7-0.1,1.3,0.1,1.8,0.7c0.7,0.9,1.4,1.9,2.1,3c0.5,0.8,0.3,1.9-0.5,2.6
		c-0.2,0.2-0.5,0.4-0.7,0.5c-0.2,0.1-0.2,0.2-0.1,0.3c0.9,1.3,2,2.4,3.1,3.5c0.7,0.7,1.5,1.4,2.4,1.9c0.2,0.1,0.3,0.1,0.4-0.1
		c0.1-0.2,0.3-0.4,0.5-0.7c0.6-0.9,1.8-1.1,2.7-0.5c0.9,0.6,1.8,1.2,2.7,1.9c0.8,0.6,1.1,1.6,0.7,2.5c-0.6,1.3-1.7,2-3.1,2.1
		C30.4,33.9,30.2,33.9,30.1,33.9z"/>
</g>
</svg>
