<?xml version="1.0" encoding="utf-8"?>
<!-- Generator: Adobe Illustrator 26.0.2, SVG Export Plug-In . SVG Version: 6.00 Build 0)  -->
<svg version="1.1" id="Layer_1" xmlns="http://www.w3.org/2000/svg" xmlns:xlink="http://www.w3.org/1999/xlink" x="0px" y="0px"
	 width="50px" height="50px" viewBox="0 0 50 50" style="enable-background:new 0 0 50 50;" xml:space="preserve">
<style type="text/css">
	.st0{fill:#FEECC4;}
	.st1{fill:#FCB857;}
</style>
<g>
	<circle class="st0" cx="25" cy="25" r="25"/>
	<g>
		<path class="st1" d="M26.2,14.4c2.7,0,5.3,0,8,0c0.2,0.1,0.5,0.2,0.7,0.3c0.4,0.3,0.6,0.6,0.7,1.1c0,2.7,0,5.3,0,8
			c-0.1,0.4-0.3,0.9-0.6,1.2c-3.3,3.3-6.6,6.6-10,9.9c-0.8,0.8-1.8,0.8-2.6,0c-2.5-2.5-4.9-4.9-7.4-7.4c-0.3-0.3-0.5-0.8-0.5-1.2
			c0-0.6,0.2-1,0.6-1.4c3.2-3.2,6.4-6.3,9.5-9.5C25,15,25.5,14.6,26.2,14.4z M28.6,19.7c0,1,0.8,1.7,1.7,1.7c1,0,1.7-0.8,1.7-1.7
			c0-1-0.7-1.7-1.7-1.7C29.3,18,28.6,18.7,28.6,19.7z"/>
	</g>
</g>
</svg>
