<?xml version="1.0" encoding="utf-8"?>
<!-- Generator: Adobe Illustrator 26.0.2, SVG Export Plug-In . SVG Version: 6.00 Build 0)  -->
<svg version="1.1" id="Layer_1" xmlns="http://www.w3.org/2000/svg" xmlns:xlink="http://www.w3.org/1999/xlink" x="0px" y="0px"
	 width="50px" height="50px" viewBox="0 0 50 50" style="enable-background:new 0 0 50 50;" xml:space="preserve">
<style type="text/css">
	.st0{fill:#FEECC4;}
	.st1{fill:#FCB857;}
</style>
<circle class="st0" cx="25" cy="25" r="25"/>
<g>
	<path class="st1" d="M25,37.2c-0.2-0.6-0.5-1.1-0.8-1.6c-1.5-3-3-5.9-4.5-8.9c-0.6-1.1-1.2-2.2-1.7-3.4c-0.8-2-0.8-4,0.1-6
		c0.8-1.8,2.1-3.1,3.9-3.8c1.3-0.6,2.7-0.8,4.2-0.5c1.9,0.3,3.4,1.2,4.7,2.6c2,2.3,2.4,5.7,1,8.5c-2.2,4.3-4.4,8.6-6.6,12.9
		C25.1,37,25.1,37.1,25,37.2C25,37.2,25,37.2,25,37.2z M29.6,20.4c0-2.5-2-4.5-4.6-4.5c-2.5,0-4.5,2-4.5,4.5c0,2.6,2,4.5,4.5,4.5
		C27.6,25,29.5,23,29.6,20.4z"/>
</g>
</svg>
