<?xml version="1.0" encoding="utf-8"?>
<!-- Generator: Adobe Illustrator 26.0.2, SVG Export Plug-In . SVG Version: 6.00 Build 0)  -->
<svg version="1.1" id="Layer_1" xmlns="http://www.w3.org/2000/svg" xmlns:xlink="http://www.w3.org/1999/xlink" x="0px" y="0px"
	 width="50px" height="50px" viewBox="0 0 50 50" style="enable-background:new 0 0 50 50;" xml:space="preserve">
<style type="text/css">
	.st0{fill:#FEECC4;}
	.st1{fill:#FCB857;}
</style>
<circle class="st0" cx="25" cy="25" r="25"/>
<g>
	<path class="st1" d="M18.6,36c-0.7-0.2-1.3-0.5-1.6-1.2c-0.2-0.3-0.3-0.7-0.3-1.1c0-5.2,0-10.4,0-15.6c0-1.2,1.1-2.3,2.3-2.3
		c0.6,0,1.1,0,1.7,0c0.2,0,0.2,0,0.1,0.2c-0.2,0.4-0.4,0.8-0.4,1.2c0,0.2-0.1,0.2-0.2,0.2c-0.2,0-0.5,0-0.7,0.1
		c-0.6,0.2-1.1,0.8-1.1,1.5c0,1.5,0,3.1,0,4.6c0,3,0,6.1,0,9.1c0,0.8,0.5,1.4,1.3,1.6c0.1,0,0.3,0,0.4,0c3.4,0,6.7,0,10.1,0
		c1,0,1.7-0.7,1.7-1.7c0-4.5,0-9,0-13.5c0-1-0.6-1.7-1.7-1.7c-0.3,0-0.3,0-0.4-0.3c-0.1-0.4-0.2-0.8-0.4-1.1
		c-0.1-0.1-0.1-0.2,0.1-0.2c0.6,0,1.2,0,1.9,0c1.1,0,2.1,1.1,2.2,2.2c0,0.1,0,0.2,0,0.4c0,5,0,10,0,15.1c0,1.3-0.9,2.3-1.9,2.5
		c0,0,0,0-0.1,0C27.1,36,22.9,36,18.6,36z"/>
	<path class="st1" d="M19.5,25.9c0-2.2,0-4.4,0-6.6c0-0.5,0.4-0.8,0.8-0.6c0.1,0,0.1,0.1,0.1,0.2c0.4,0.7,1,1.1,1.8,1.1
		c1.8,0,3.6,0,5.4,0c0.8,0,1.4-0.4,1.8-1.1c0.1-0.1,0.1-0.2,0.3-0.2c0.1,0,0.1,0,0.2,0c0.4,0,0.5,0.1,0.5,0.5c0,4.5,0,9,0,13.4
		c0,0.4-0.1,0.5-0.5,0.5c-3.3,0-6.7,0-10,0c-0.4,0-0.5-0.1-0.5-0.5C19.5,30.4,19.5,28.1,19.5,25.9z M23.8,24
		C23.8,24,23.8,24,23.8,24c0.1,0,0.3,0,0.4,0c0.1,0,0.2,0.1,0.2,0.2c0,0.3,0,0.5,0,0.8c0,0.1,0,0.3,0.1,0.4c0.1,0.2,0.4,0.4,0.7,0.3
		c0.3-0.1,0.5-0.3,0.5-0.6c0-0.3,0-0.6,0-0.9c0-0.1,0.1-0.2,0.2-0.2c0.3,0,0.5,0,0.8,0c0.4,0,0.7-0.3,0.7-0.6c0-0.4-0.3-0.6-0.7-0.6
		c-0.3,0-0.5,0-0.8,0c-0.1,0-0.2-0.1-0.2-0.2c0-0.3,0-0.5,0-0.8c0-0.4-0.3-0.7-0.6-0.7c-0.4,0-0.6,0.3-0.6,0.7c0,0.3,0,0.5,0,0.8
		c0,0.1-0.1,0.2-0.2,0.2c-0.3,0-0.6,0-0.9,0c-0.4,0-0.7,0.3-0.7,0.6c0,0.3,0.3,0.6,0.6,0.6C23.5,24,23.6,24,23.8,24z M25,28.3
		c0.7,0,1.3,0,2,0c0.1,0,0.1,0,0.2,0c0.3-0.1,0.6-0.3,0.6-0.6c0-0.3-0.3-0.6-0.6-0.6c-0.1,0-0.2,0-0.3,0c-1.3,0-2.6,0-3.9,0
		c-0.4,0-0.7,0.3-0.7,0.6c0,0.3,0.3,0.6,0.7,0.6c0.1,0,0.1,0,0.2,0C23.7,28.3,24.3,28.3,25,28.3z M25,30.8c0.7,0,1.3,0,2,0
		c0.5,0,0.8-0.3,0.8-0.6c0-0.4-0.3-0.6-0.8-0.6c0,0-0.1,0-0.1,0c-1.1,0-2.3,0-3.4,0c-0.2,0-0.4,0-0.6,0c-0.4,0-0.6,0.3-0.6,0.6
		c0,0.3,0.3,0.6,0.6,0.6c0.1,0,0.1,0,0.2,0C23.7,30.8,24.3,30.8,25,30.8z"/>
	<path class="st1" d="M25,18.8c-0.9,0-1.8,0-2.6,0c-0.6,0-0.8-0.2-0.8-0.8c0-0.3,0-0.5,0-0.8c0.2-0.7,0.7-1.3,1.5-1.3
		c0.2,0,0.2-0.1,0.2-0.2c0-0.2,0-0.3,0-0.5c0-0.6,0.5-1.1,1.1-1.1c0.4,0,0.9,0,1.3,0c0.6,0,1.1,0.5,1.1,1.1c0,0,0,0,0,0
		c0,0.2-0.1,0.4,0,0.6c0.1,0.2,0.4,0.1,0.5,0.2c0.7,0.2,1.2,0.9,1.2,1.6c0,0.2,0,0.3,0,0.5c0,0.5-0.3,0.7-0.7,0.7
		C26.8,18.8,25.9,18.8,25,18.8z"/>
</g>
</svg>
