<?xml version="1.0" encoding="utf-8"?>
<!-- Generator: Adobe Illustrator 26.0.2, SVG Export Plug-In . SVG Version: 6.00 Build 0)  -->
<svg version="1.1" id="Layer_1" xmlns="http://www.w3.org/2000/svg" xmlns:xlink="http://www.w3.org/1999/xlink" x="0px" y="0px"
	 width="50px" height="50px" viewBox="0 0 50 50" style="enable-background:new 0 0 50 50;" xml:space="preserve">
<style type="text/css">
	.st0{fill:#FEECC4;}
	.st1{fill:#FCB857;}
</style>
<circle class="st0" cx="25" cy="25" r="25"/>
<g>
	<path class="st1" d="M11.8,18.9c0.2-0.3,0.4-0.4,0.7-0.6c4-1.4,8-2.8,12.1-4.3c0.3-0.1,0.5-0.1,0.8,0c3.3,1.2,6.6,2.3,9.8,3.5
		c0.8,0.3,1.6,0.5,2.3,0.8c0.4,0.1,0.6,0.3,0.6,0.8c0,0.4-0.2,0.7-0.6,0.8c-0.8,0.3-1.5,0.5-2.3,0.8c-3.3,1.2-6.6,2.3-9.9,3.5
		c-0.3,0.1-0.6,0.1-0.9,0c-4-1.4-8-2.9-12-4.3c-0.3-0.1-0.6-0.3-0.7-0.6C11.8,19.2,11.8,19,11.8,18.9z"/>
	<path class="st1" d="M32.8,25.1c0,0.4,0,0.9,0,1.3c0,0.7-0.3,1.2-0.8,1.5c-0.7,0.5-1.5,0.8-2.3,1c-1.2,0.3-2.4,0.5-3.7,0.6
		c-2.2,0.1-4.4-0.1-6.6-0.8c-0.5-0.2-1.1-0.4-1.5-0.8c-0.5-0.4-0.8-0.8-0.8-1.5c0-0.9,0-1.9,0-2.8c0-0.3,0-0.4,0.3-0.2
		c2.2,0.8,4.4,1.5,6.5,2.3c0.6,0.2,1.2,0.2,1.8,0c2.2-0.8,4.4-1.6,6.6-2.3c0.3-0.1,0.3-0.1,0.3,0.2C32.8,24.1,32.8,24.6,32.8,25.1z"
		/>
	<path class="st1" d="M36.4,25.4c0,1,0,2,0,3.1c0,0.2,0,0.3,0.2,0.4c0.8,0.6,0.8,1.8,0,2.4c-0.2,0.1-0.2,0.2-0.2,0.4
		c0,1.2,0,2.3,0,3.5c0,0.3-0.1,0.6-0.4,0.7c-0.3,0.1-0.5,0.1-0.8,0c-0.3-0.2-0.4-0.4-0.4-0.7c0-1.1,0-2.3,0-3.4c0-0.2,0-0.3-0.2-0.5
		c-0.8-0.7-0.8-1.8,0-2.4c0.1-0.1,0.2-0.2,0.2-0.4c0-1.9,0-3.7,0-5.6c0-0.2,0.1-0.4,0.3-0.4c0.3-0.1,0.7-0.2,1-0.4
		c0.2-0.1,0.3,0,0.3,0.2C36.4,23.3,36.4,24.3,36.4,25.4z"/>
</g>
</svg>
