<?xml version="1.0" encoding="utf-8"?>
<!-- Generator: Adobe Illustrator 26.0.2, SVG Export Plug-In . SVG Version: 6.00 Build 0)  -->
<svg version="1.1" id="Layer_1" xmlns="http://www.w3.org/2000/svg" xmlns:xlink="http://www.w3.org/1999/xlink" x="0px" y="0px"
	 width="50px" height="50px" viewBox="0 0 50 50" style="enable-background:new 0 0 50 50;" xml:space="preserve">
<style type="text/css">
	.st0{fill:#FEECC4;}
	.st1{fill:#FCB857;}
</style>
<circle class="st0" cx="25" cy="25" r="25"/>
<g>
	<path class="st1" d="M35.1,34.1c0,0.3,0,0.6,0,0.9c0,0.1,0,0.1-0.1,0.1c0,0-0.1,0-0.1,0c-6.6,0-13.2,0-19.9,0c-0.1,0-0.2,0-0.2-0.2
		c0-0.3,0-0.5,0-0.8c0,0,0-0.1,0-0.1c0.4-2,1.5-3.3,3.4-3.9c0.9-0.3,1.9-0.5,2.9-0.7c0.5-0.1,0.5-0.1,0.6-0.7c0-0.1,0-0.2-0.1-0.2
		c-0.4-0.1-0.7-0.1-1.1-0.2c-0.7-0.2-1.4-0.4-2.1-0.8c-0.3-0.2-0.4-0.5-0.1-0.7c0.4-0.4,0.7-0.9,0.9-1.4c0.4-1.1,0.6-2.3,0.6-3.4
		c0-0.5,0-1.1,0.1-1.6c0.1-1.3,0.6-2.6,1.5-3.6c1-1.1,2.3-1.9,3.9-1.8c0.7,0,1.3,0.2,1.9,0.7c0.1,0.1,0.2,0.1,0.3,0.1
		c0.9,0,1.5,0.4,1.9,1.2c0.4,0.8,0.5,1.6,0.6,2.5c0.1,0.9,0.1,1.8,0.1,2.7c0,0.9,0.2,1.8,0.4,2.7c0.2,0.7,0.5,1.4,1,1.9
		c0.3,0.3,0.3,0.6-0.1,0.8c-0.1,0-0.2,0.1-0.2,0.1c-0.8,0.4-1.7,0.6-2.6,0.8c-0.4,0.1-0.4,0.1-0.3,0.5c0,0.2,0.1,0.3,0.3,0.3
		c1,0.2,1.9,0.5,2.9,0.7c1.3,0.3,2.3,1,3,2.2C34.8,32.8,35,33.4,35.1,34.1z"/>
</g>
</svg>
