<?xml version="1.0" encoding="utf-8"?>
<!-- Generator: Adobe Illustrator 26.0.2, SVG Export Plug-In . SVG Version: 6.00 Build 0)  -->
<svg version="1.1" id="Layer_1" xmlns="http://www.w3.org/2000/svg" xmlns:xlink="http://www.w3.org/1999/xlink" x="0px" y="0px"
	 width="50px" height="50px" viewBox="0 0 50 50" style="enable-background:new 0 0 50 50;" xml:space="preserve">
<style type="text/css">
	.st0{fill:#FEECC4;}
	.st1{fill:#FCB857;}
</style>
<circle class="st0" cx="25" cy="25" r="25"/>
<g>
	<path class="st1" d="M16.8,34.8c-0.3-0.1-0.4-0.4-0.4-0.7c0-3.5,2.6-6.6,6-7.3c0.4-0.1,0.9-0.1,1.3-0.1c0.9,0,1.7,0,2.6,0
		c1.8,0,3.3,0.6,4.7,1.8c1.4,1.2,2.2,2.7,2.5,4.5c0.1,0.4,0.1,0.7,0.1,1.1c0,0.3-0.1,0.6-0.4,0.7C27.7,34.8,22.3,34.8,16.8,34.8z"/>
	<path class="st1" d="M25,25.6c-2.9,0-5.2-2.3-5.2-5.2c0-2.8,2.3-5.2,5.2-5.2c2.8,0,5.2,2.4,5.2,5.2C30.1,23.3,27.9,25.6,25,25.6z"
		/>
</g>
</svg>
