<?xml version="1.0" encoding="utf-8"?>
<!-- Generator: Adobe Illustrator 26.0.2, SVG Export Plug-In . SVG Version: 6.00 Build 0)  -->
<svg version="1.1" id="Layer_1" xmlns="http://www.w3.org/2000/svg" xmlns:xlink="http://www.w3.org/1999/xlink" x="0px" y="0px"
	 width="20px" height="20px" viewBox="0 0 20 20" style="enable-background:new 0 0 20 20;" xml:space="preserve">
<style type="text/css">
	.st0{fill:#FFFFFF;}
</style>
<g>
	<path class="st0" d="M19,17.5c-0.1,0.4-0.4,0.6-0.7,0.8c-0.1,0-0.3,0.1-0.4,0.1c-5.2,0-10.4,0-15.6,0c-0.6,0-1-0.3-1.2-0.8
		c0-0.1,0-0.2,0-0.3c0-1.1,0-2.2,0-3.2c0-0.6,0.4-1.2,1.2-1.2c1.3,0,2.6,0,3.9,0c0.3,0,0.5,0,0.8,0c0.1,0,0.2,0,0.3,0.1
		c0.4,0.4,0.9,0.9,1.3,1.3c0.8,0.9,2.2,0.9,3,0c0.4-0.4,0.9-0.9,1.3-1.3c0.1-0.1,0.2-0.1,0.3-0.1c1.6,0,3.1,0,4.7,0
		c0.6,0,1,0.3,1.2,0.8C19,14.9,19,16.2,19,17.5z M14.1,16.9c0.4,0,0.7-0.3,0.7-0.7c0-0.4-0.3-0.7-0.6-0.7c-0.4,0-0.7,0.3-0.7,0.7
		C13.5,16.6,13.8,16.9,14.1,16.9z M16.9,15.5c-0.4,0-0.7,0.3-0.6,0.7c0,0.4,0.3,0.6,0.7,0.6c0.4,0,0.7-0.3,0.7-0.7
		C17.6,15.8,17.3,15.5,16.9,15.5z"/>
	<path class="st0" d="M7.9,4.7c0-0.7,0-1.5,0-2.2c0-0.5,0.3-0.8,0.8-0.8c0.9,0,1.7,0,2.6,0c0.5,0,0.8,0.3,0.8,0.8c0,1.5,0,3,0,4.5
		c0,0.2,0,0.2,0.2,0.2c0.8,0,1.6,0,2.5,0c0.4,0,0.6,0.2,0.7,0.6c0,0.2,0,0.4-0.1,0.5c-0.1,0.1-0.2,0.2-0.2,0.3c-1.5,1.5-3,3-4.5,4.5
		c0,0,0,0-0.1,0.1c-0.4,0.4-0.8,0.4-1.2,0c-0.9-0.9-1.7-1.7-2.6-2.6c-0.7-0.7-1.3-1.3-2-2C4.8,8.5,4.7,8.5,4.6,8.4
		C4.4,8.2,4.4,7.9,4.5,7.7c0.1-0.3,0.3-0.4,0.6-0.4c0.5,0,0.9,0,1.4,0c0.4,0,0.8,0,1.2,0c0.1,0,0.2,0,0.2-0.2
		C7.9,6.3,7.9,5.5,7.9,4.7z"/>
</g>
</svg>
