<?xml version="1.0" encoding="utf-8"?>
<!-- Generator: Adobe Illustrator 26.0.2, SVG Export Plug-In . SVG Version: 6.00 Build 0)  -->
<svg version="1.1" id="Layer_1" xmlns="http://www.w3.org/2000/svg" xmlns:xlink="http://www.w3.org/1999/xlink" x="0px" y="0px"
	 width="20px" height="20px" viewBox="0 0 20 20" style="enable-background:new 0 0 20 20;" xml:space="preserve">
<style type="text/css">
	.st0{fill:#FFFFFF;}
</style>
<g>
	<path class="st0" d="M19.5,6.6c0,2.3,0,4.7,0,7c0,0.1,0,0.1-0.1,0.2c-0.2,0.6-0.7,1-1.3,1c-0.6,0.1-1.2,0-1.8,0
		c-0.3,0-0.3,0-0.3,0.3c0,1,0,2,0,3c0,0.5-0.2,0.8-0.7,0.8c-3.5,0-7,0-10.6,0c-0.5,0-0.7-0.2-0.7-0.8c0-1,0-2,0-3
		c0-0.3,0-0.3-0.3-0.3c-0.6,0-1.3,0-1.9,0c-0.8-0.1-1.4-0.7-1.4-1.4c0-2.2,0-4.3,0-6.5c0-0.8,0.6-1.4,1.4-1.4c0.6,0,1.2,0,1.8,0
		C4,5.4,4,5.4,4,5.2C4,4.1,4,3,4,1.9c0-0.5,0.2-0.8,0.8-0.8c3.5,0,7,0,10.5,0c0.5,0,0.8,0.2,0.8,0.8c0,1.1,0,2.2,0,3.3
		c0,0.2,0,0.2,0.2,0.2c0.6,0,1.2,0,1.8,0c0.3,0,0.6,0.1,0.9,0.3C19.3,6,19.4,6.3,19.5,6.6z M10,12.4c-1.5,0-2.9,0-4.4,0
		c-0.3,0-0.3,0-0.3,0.3c0,1.5,0,3,0,4.5c0,0.3,0,0.3,0.3,0.3c2.9,0,5.9,0,8.8,0c0.3,0,0.3,0,0.3-0.3c0-1.5,0-3,0-4.5
		c0-0.3,0-0.3-0.3-0.3C13,12.4,11.5,12.4,10,12.4z M10,5.4c1.5,0,3,0,4.5,0c0.2,0,0.3,0,0.3-0.3c0-0.8,0-1.6,0-2.5
		c0-0.3,0-0.3-0.3-0.3c-3,0-5.9,0-8.9,0c-0.2,0-0.3,0-0.3,0.3c0,0.8,0,1.6,0,2.5c0,0.3,0,0.3,0.3,0.3C7,5.4,8.5,5.4,10,5.4z
		 M14.6,9.2c0.2,0,0.5,0,0.7,0c0,0,0,0,0,0c0.4,0,0.6-0.2,0.7-0.6c0-0.4-0.2-0.6-0.6-0.6c-0.5,0-1.1,0-1.6,0c-0.4,0-0.6,0.3-0.6,0.7
		c0,0.3,0.3,0.6,0.7,0.6C14.1,9.2,14.3,9.2,14.6,9.2z"/>
	<path class="st0" d="M10,16.6c-0.9,0-1.8,0-2.7,0c-0.5,0-0.8-0.5-0.6-0.9c0.1-0.2,0.3-0.3,0.5-0.3c0.1,0,0.2,0,0.4,0
		c1.7,0,3.3,0,5,0c0.1,0,0.2,0,0.3,0c0.4,0,0.6,0.3,0.6,0.7c0,0.3-0.3,0.6-0.6,0.6C11.8,16.6,10.9,16.6,10,16.6z"/>
	<path class="st0" d="M10,13.3c0.9,0,1.8,0,2.7,0c0.5,0,0.8,0.5,0.6,0.9c-0.1,0.2-0.3,0.4-0.5,0.4c-0.1,0-0.3,0-0.4,0
		c-1.6,0-3.2,0-4.9,0c-0.1,0-0.3,0-0.4,0c-0.4,0-0.6-0.3-0.6-0.7c0-0.3,0.3-0.6,0.6-0.6c0.5,0,1.1,0,1.6,0
		C9.2,13.3,9.6,13.3,10,13.3z"/>
</g>
</svg>
