<?xml version="1.0" encoding="utf-8"?>
<!-- Generator: Adobe Illustrator 26.0.2, SVG Export Plug-In . SVG Version: 6.00 Build 0)  -->
<svg version="1.1" id="Layer_1" xmlns="http://www.w3.org/2000/svg" xmlns:xlink="http://www.w3.org/1999/xlink" x="0px" y="0px"
	 width="20px" height="20px" viewBox="0 0 20 20" style="enable-background:new 0 0 20 20;" xml:space="preserve">
<style type="text/css">
	.st0{fill:#FFFFFF;}
</style>
<g>
	<path class="st0" d="M15,19.3c-0.6-0.1-1.1-0.3-1.6-0.7c-1-0.9-1.4-1.9-1.2-3.3c0-0.2,0-0.3-0.2-0.4c-1.6-0.8-3.1-1.6-4.7-2.4
		c-0.1-0.1-0.2-0.1-0.3,0.1c-0.7,0.9-1.7,1.3-2.8,1.2c-1.4-0.1-2.7-1.3-2.9-2.8C1.1,9.3,2.2,7.7,3.8,7.4c1.2-0.3,2.2,0,3,0.9
		c0.1,0.1,0.2,0.1,0.4,0c1.7-1,3.3-2,5-3c0.1-0.1,0.2-0.1,0.1-0.3c-0.6-1.8,0.6-3.8,2.5-4.2c1.8-0.3,3.5,0.8,3.8,2.6
		C19,5.2,17.7,7,15.9,7.2c-1.1,0.2-2.1-0.2-2.8-1c-0.1-0.1-0.2-0.1-0.3,0c-1.7,1-3.4,2-5,3C7.7,9.3,7.6,9.4,7.7,9.5
		c0.2,0.6,0.2,1.2,0.1,1.8c0,0.1,0,0.2,0.1,0.3c1.6,0.8,3.2,1.6,4.8,2.5c0.1,0.1,0.2,0,0.3-0.1c0.5-0.6,1.2-1,2-1.1
		c1-0.1,1.8,0.1,2.6,0.7c0.9,0.7,1.2,1.7,1.1,2.8c-0.1,1.5-1.3,2.7-2.8,2.9c0,0,0,0-0.1,0C15.6,19.3,15.3,19.3,15,19.3z"/>
</g>
</svg>
