<?xml version="1.0" encoding="utf-8"?>
<!-- Generator: Adobe Illustrator 26.3.1, SVG Export Plug-In . SVG Version: 6.00 Build 0)  -->
<svg version="1.1" id="Layer_1" xmlns="http://www.w3.org/2000/svg" xmlns:xlink="http://www.w3.org/1999/xlink" x="0px" y="0px"
	 width="23.33px" height="23.33px" viewBox="0 0 23.33 23.33" style="enable-background:new 0 0 23.33 23.33;" xml:space="preserve"
	>
<style type="text/css">
	.st0{fill:#F36F21;}
</style>
<g>
	<path class="st0" d="M18.18,22.64c-0.1,0-0.2,0-0.3,0c-0.14-0.07-0.28-0.14-0.42-0.22c-1.87-1.03-3.74-2.06-5.6-3.1
		c-0.14-0.08-0.25-0.08-0.39,0c-0.5,0.28-1,0.56-1.5,0.83c-1.51,0.83-3.01,1.65-4.52,2.48c-0.1,0-0.2,0-0.3,0
		c-0.49-0.26-0.59-0.47-0.5-1.02c0.01-0.08,0.02-0.17,0.04-0.25c0.35-2.13,0.69-4.25,1.05-6.38c0.03-0.18,0-0.31-0.13-0.44
		c-1.44-1.46-2.87-2.93-4.3-4.39C1.08,9.92,0.85,9.71,0.69,9.44c0-0.14,0-0.29,0-0.43c0.16-0.34,0.45-0.47,0.8-0.52
		c2.05-0.3,4.09-0.63,6.14-0.93c0.27-0.04,0.42-0.15,0.54-0.4c0.92-1.99,1.86-3.97,2.79-5.96c0.08-0.18,0.18-0.34,0.37-0.43
		c0.4-0.19,0.82-0.03,1.02,0.41c0.95,2.02,1.9,4.05,2.85,6.07c0.08,0.17,0.19,0.26,0.38,0.29c1.53,0.23,3.05,0.46,4.58,0.69
		c0.64,0.1,1.27,0.18,1.9,0.3c0.57,0.11,0.77,0.74,0.38,1.17c-0.1,0.12-0.21,0.23-0.32,0.35c-1.46,1.5-2.92,3-4.39,4.49
		c-0.13,0.13-0.17,0.26-0.14,0.44c0.36,2.21,0.72,4.43,1.09,6.64C18.77,22.18,18.68,22.38,18.18,22.64z"/>
</g>
</svg>
